# xmcd
#
# Track frame offsets: 
#        150
#        12695
#        40080
#        56380
#        67515
#        83052
#        98096
#        116015
#        132520
#        152783
#        175189
#        191179
#        216054
#        239298
#        260072
#        282683
#        316036
#        333581
#
# Disc length: 4693 seconds
#
# Revision: 1
# Processed by: cddbd v1.5.2PL0 Copyright (c) Steve Scherf et al.
# Submitted via: ExactAudioCopy v0.99pb4
#
DISCID=03125312
DTITLE=Michel Jonasz - Michel Jonasz CD 2
DYEAR=2006
DGENRE=Pop
TTITLE0=Le scat
TTITLE1=L'air que l'on respire
TTITLE2=C'est la nuit
TTITLE3=Les lignes téléphoniques
TTITLE4=La famille
TTITLE5=La bossa
TTITLE6=Une seule journée passée sans elle
TTITLE7=Nos deux noms
TTITLE8=Golden Gate
TTITLE9=Extra lucide
TTITLE10=Les années 80 commencent
TTITLE11=J'veux pas qu'tu t'en ailles
TTITLE12=Tristesse
TTITLE13=Lord Have Mercy
TTITLE14=Triste et bleu
TTITLE15=La fabuleuse histoire de Mister Swing
TTITLE16=Le ragtime à la Scott Joplin (inédit)
TTITLE17=Le premier baiser (inédit)
EXTD=
EXTT0=
EXTT1=
EXTT2=
EXTT3=
EXTT4=
EXTT5=
EXTT6=
EXTT7=
EXTT8=
EXTT9=
EXTT10=
EXTT11=
EXTT12=
EXTT13=
EXTT14=
EXTT15=
EXTT16=
EXTT17=
PLAYORDER=
